<?xml version="1.0" encoding="UTF-8"?>
<svg xmlns="http://www.w3.org/2000/svg" width="900" height="600" viewBox="0 0 900 600">
  <rect x="0" y="0" width="100%" height="100%" fill="#ffffff" />
  <style>text { font-family: 'DejaVu Sans', Arial, sans-serif; fill: #222; }</style>
  <text x="450.0" y="44.0" font-size="24" text-anchor="middle">Example Plot</text>
  <text x="450.0" y="68.0" font-size="16" text-anchor="middle" fill="#555">Auto height • Side margins disabled</text>
  <rect x="80" y="80" width="780" height="430" fill="#fafafa" stroke="#d0d0d0" stroke-width="1" />
  <line x1="80.00" y1="80" x2="80.00" y2="510" stroke="#e0e0e0" stroke-width="1" stroke-dasharray="4 4" />
  <line x1="275.00" y1="80" x2="275.00" y2="510" stroke="#e0e0e0" stroke-width="1" stroke-dasharray="4 4" />
  <line x1="470.00" y1="80" x2="470.00" y2="510" stroke="#e0e0e0" stroke-width="1" stroke-dasharray="4 4" />
  <line x1="665.00" y1="80" x2="665.00" y2="510" stroke="#e0e0e0" stroke-width="1" stroke-dasharray="4 4" />
  <line x1="860.00" y1="80" x2="860.00" y2="510" stroke="#e0e0e0" stroke-width="1" stroke-dasharray="4 4" />
  <line x1="80" y1="490.46" x2="860" y2="490.46" stroke="#e0e0e0" stroke-width="1" stroke-dasharray="4 4" />
  <line x1="80" y1="392.73" x2="860" y2="392.73" stroke="#e0e0e0" stroke-width="1" stroke-dasharray="4 4" />
  <line x1="80" y1="295.00" x2="860" y2="295.00" stroke="#e0e0e0" stroke-width="1" stroke-dasharray="4 4" />
  <line x1="80" y1="197.27" x2="860" y2="197.27" stroke="#e0e0e0" stroke-width="1" stroke-dasharray="4 4" />
  <line x1="80" y1="99.54" x2="860" y2="99.54" stroke="#e0e0e0" stroke-width="1" stroke-dasharray="4 4" />
  <text x="470.00" y="555.00" font-size="18" text-anchor="middle">X axis label</text>
  <text x="28.00" y="295.00" font-size="18" text-anchor="middle" transform="rotate(-90 28.00 295.00)">Y axis label</text>
  <text x="80.00" y="534.00" font-size="14" text-anchor="middle">0</text>
  <text x="275.00" y="534.00" font-size="14" text-anchor="middle">π/2</text>
  <text x="470.00" y="534.00" font-size="14" text-anchor="middle">π</text>
  <text x="665.00" y="534.00" font-size="14" text-anchor="middle">3π/2</text>
  <text x="860.00" y="534.00" font-size="14" text-anchor="middle">2π</text>
  <text x="68.00" y="495.46" font-size="14" text-anchor="end">-1</text>
  <text x="68.00" y="397.73" font-size="14" text-anchor="end">-0.5</text>
  <text x="68.00" y="300.00" font-size="14" text-anchor="end">0</text>
  <text x="68.00" y="202.27" font-size="14" text-anchor="end">0.5</text>
  <text x="68.00" y="104.54" font-size="14" text-anchor="end">1</text>
  <polyline points="80.00,295.00 81.95,294.95 83.91,294.81 85.86,294.56 87.82,294.22 89.77,293.79 91.73,293.26 93.68,292.63 95.64,291.90 97.59,291.07 99.55,290.15 101.50,289.14 103.46,288.02 105.41,286.81 107.37,285.50 109.32,284.10 111.28,282.60 113.23,281.00 115.19,279.31 117.14,277.53 119.10,275.64 121.05,273.67 123.01,271.60 124.96,269.43 126.92,267.18 128.87,264.83 130.83,262.39 132.78,259.86 134.74,257.24 136.69,254.53 138.65,251.74 140.60,248.86 142.56,245.90 144.51,242.86 146.47,239.73 148.42,236.54 150.38,233.26 152.33,229.91 154.29,226.50 156.24,223.01 158.20,219.47 160.15,215.86 162.11,212.20 164.06,208.49 166.02,204.73 167.97,200.92 169.92,197.08 171.88,193.21 173.83,189.31 175.79,185.38 177.74,181.44 179.70,177.49 181.65,173.54 183.61,169.60 185.56,165.66 187.52,161.75 189.47,157.87 191.43,154.02 193.38,150.21 195.34,146.47 197.29,142.78 199.25,139.17 201.20,135.65 203.16,132.22 205.11,128.89 207.07,125.68 209.02,122.60 210.98,119.66 212.93,116.86 214.89,114.23 216.84,111.78 218.80,109.51 220.75,107.44 222.71,105.59 224.66,103.96 226.62,102.56 228.57,101.42 230.53,100.53 232.48,99.92 234.44,99.60 236.39,99.57 238.35,99.85 240.30,100.46 242.26,101.39 244.21,102.67 246.17,104.29 248.12,106.28 250.08,108.63 252.03,111.36 253.98,114.48 255.94,117.98 257.89,121.88 259.85,126.17 261.80,130.87 263.76,135.96 265.71,141.46 267.67,147.36 269.62,153.66 271.58,160.35 273.53,167.42 275.49,174.88 277.44,182.72 279.40,190.91 281.35,199.45 283.31,208.32 285.26,217.51 287.22,227.01 289.17,236.78 291.13,246.80 293.08,257.06 295.04,267.52 296.99,278.16 298.95,288.95 300.90,299.86 302.86,310.84 304.81,321.87 306.77,332.91 308.72,343.92 310.68,354.86 312.63,365.69 314.59,376.36 316.54,386.82 318.50,397.05 320.45,406.98 322.41,416.58 324.36,425.79 326.32,434.57 328.27,442.88 330.23,450.66 332.18,457.87 334.14,464.47 336.09,470.41 338.05,475.66 340.00,480.17 341.95,483.90 343.91,486.83 345.86,488.91 347.82,490.13 349.77,490.45 351.73,489.85 353.68,488.32 355.64,485.84 357.59,482.41 359.55,478.03 361.50,472.69 363.46,466.40 365.41,459.18 367.37,451.05 369.32,442.03 371.28,432.16 373.23,421.46 375.19,410.00 377.14,397.81 379.10,384.96 381.05,371.50 383.01,357.50 384.96,343.05 386.92,328.22 388.87,313.08 390.83,297.75 392.78,282.29 394.74,266.82 396.69,251.44 398.65,236.24 400.60,221.33 402.56,206.83 404.51,192.82 406.47,179.42 408.42,166.74 410.38,154.88 412.33,143.93 414.29,134.00 416.24,125.17 418.20,117.52 420.15,111.14 422.11,106.10 424.06,102.45 426.02,100.25 427.97,99.55 429.92,100.36 431.88,102.72 433.83,106.63 435.79,112.08 437.74,119.05 439.70,127.51 441.65,137.42 443.61,148.71 445.56,161.31 447.52,175.13 449.47,190.06 451.43,206.00 453.38,222.81 455.34,240.37 457.29,258.50 459.25,277.07 461.20,295.90 463.16,314.82 465.11,333.64 467.07,352.20 469.02,370.29 470.98,387.74 472.93,404.36 474.89,419.98 476.84,434.42 478.80,447.51 480.75,459.10 482.71,469.05 484.66,477.23 486.62,483.53 488.57,487.85 490.53,490.11 492.48,490.26 494.44,488.27 496.39,484.14 498.35,477.87 500.30,469.51 502.26,459.12 504.21,446.80 506.17,432.66 508.12,416.85 510.08,399.52 512.03,380.87 513.98,361.10 515.94,340.44 517.89,319.14 519.85,297.44 521.80,275.61 523.76,253.93 525.71,232.67 527.67,212.13 529.62,192.56 531.58,174.24 533.53,157.43 535.49,142.37 537.44,129.28 539.40,118.37 541.35,109.82 543.31,103.78 545.26,100.35 547.22,99.62 549.17,101.64 551.13,106.40 553.08,113.88 555.04,124.01 556.99,136.66 558.95,151.69 560.90,168.89 562.86,188.04 564.81,208.88 566.77,231.10 568.72,254.39 570.68,278.39 572.63,302.75 574.59,327.08 576.54,351.01 578.50,374.13 580.45,396.09 582.41,416.49 584.36,435.00 586.32,451.29 588.27,465.06 590.23,476.06 592.18,484.06 594.14,488.90 596.09,490.45 598.05,488.66 600.00,483.52 601.95,475.07 603.91,463.44 605.86,448.78 607.82,431.33 609.77,411.38 611.73,389.24 613.68,365.31 615.64,340.00 617.59,313.77 619.55,287.10 621.50,260.47 623.46,234.41 625.41,209.40 627.37,185.94 629.32,164.50 631.28,145.52 633.23,129.40 635.19,116.48 637.14,107.07 639.10,101.37 641.05,99.55 643.01,101.68 644.96,107.77 646.92,117.72 648.87,131.37 650.83,148.48 652.78,168.72 654.74,191.69 656.69,216.94 658.65,243.95 660.60,272.14 662.56,300.93 664.51,329.68 666.47,357.77 668.42,384.55 670.38,409.44 672.33,431.83 674.29,451.22 676.24,467.11 678.20,479.12 680.15,486.93 682.11,490.32 684.06,489.16 686.02,483.44 687.97,473.25 689.92,458.78 691.88,440.35 693.83,418.37 695.79,393.32 697.74,365.79 699.70,336.44 701.65,305.97 703.61,275.14 705.56,244.70 707.52,215.44 709.47,188.11 711.43,163.41 713.38,142.01 715.34,124.50 717.29,111.35 719.25,102.97 721.20,99.61 723.16,101.40 725.11,108.35 727.07,120.32 729.02,137.03 730.98,158.06 732.93,182.89 734.89,210.87 736.84,241.26 738.80,273.22 740.75,305.88 742.71,338.34 744.66,369.67 746.62,398.96 748.57,425.38 750.53,448.12 752.48,466.50 754.44,479.94 756.39,488.02 758.35,490.44 760.30,487.08 762.26,478.00 764.21,463.42 766.17,443.73 768.12,419.48 770.08,391.37 772.03,360.23 773.98,327.00 775.94,292.68 777.89,258.34 779.85,225.05 781.80,193.88 783.76,165.81 785.71,141.79 787.67,122.60 789.62,108.91 791.58,101.21 793.53,99.79 795.49,104.76 797.44,116.00 799.40,133.19 801.35,155.81 803.31,183.15 805.26,214.32 807.22,248.30 809.17,283.96 811.13,320.09 813.08,355.45 815.04,388.82 816.99,419.02 818.95,444.98 820.90,465.73 822.86,480.52 824.81,488.77 826.77,490.13 828.72,484.51 830.68,472.04 832.63,453.13 834.59,428.42 836.54,398.76 838.50,365.21 840.45,328.99 842.41,291.40 844.36,253.86 846.32,217.76 848.27,184.49 850.23,155.33 852.18,131.41 854.14,113.70 856.09,102.93 858.05,99.56 860.00,103.78" fill="none" stroke="#1f77b4" stroke-width="2.5" />
  <rect x="93.40" y="96.40" width="180" height="40" rx="6" ry="6" fill="#ffffff" stroke="#d0d0d0" />
  <line x1="103.40" y1="114.40" x2="163.40" y2="114.40" stroke="#1f77b4" stroke-width="2.5" />
  <text x="173.40" y="119.40" font-size="15">Sine wave</text>
  <text x="450.0" y="577.5" font-size="15" text-anchor="middle" fill="#666">export_latex(fig, name=..., fraction=1.0)</text>
</svg>