<?xml version="1.0" encoding="UTF-8"?>
<svg xmlns="http://www.w3.org/2000/svg" width="900" height="840" viewBox="0 0 900 840">
  <rect x="0" y="0" width="100%" height="100%" fill="#ffffff" />
  <style>text { font-family: 'DejaVu Sans', Arial, sans-serif; fill: #222; }</style>
  <text x="450.0" y="44.0" font-size="24" text-anchor="middle">Example Plot</text>
  <text x="450.0" y="68.0" font-size="16" text-anchor="middle" fill="#555">Fixed aspect = 1.2 (taller)</text>
  <rect x="80" y="80" width="780" height="650" fill="#fafafa" stroke="#d0d0d0" stroke-width="1" />
  <line x1="80.00" y1="80" x2="80.00" y2="730" stroke="#e0e0e0" stroke-width="1" stroke-dasharray="4 4" />
  <line x1="275.00" y1="80" x2="275.00" y2="730" stroke="#e0e0e0" stroke-width="1" stroke-dasharray="4 4" />
  <line x1="470.00" y1="80" x2="470.00" y2="730" stroke="#e0e0e0" stroke-width="1" stroke-dasharray="4 4" />
  <line x1="665.00" y1="80" x2="665.00" y2="730" stroke="#e0e0e0" stroke-width="1" stroke-dasharray="4 4" />
  <line x1="860.00" y1="80" x2="860.00" y2="730" stroke="#e0e0e0" stroke-width="1" stroke-dasharray="4 4" />
  <line x1="80" y1="700.46" x2="860" y2="700.46" stroke="#e0e0e0" stroke-width="1" stroke-dasharray="4 4" />
  <line x1="80" y1="552.73" x2="860" y2="552.73" stroke="#e0e0e0" stroke-width="1" stroke-dasharray="4 4" />
  <line x1="80" y1="405.00" x2="860" y2="405.00" stroke="#e0e0e0" stroke-width="1" stroke-dasharray="4 4" />
  <line x1="80" y1="257.27" x2="860" y2="257.27" stroke="#e0e0e0" stroke-width="1" stroke-dasharray="4 4" />
  <line x1="80" y1="109.54" x2="860" y2="109.54" stroke="#e0e0e0" stroke-width="1" stroke-dasharray="4 4" />
  <text x="470.00" y="785.00" font-size="18" text-anchor="middle">X axis label</text>
  <text x="28.00" y="405.00" font-size="18" text-anchor="middle" transform="rotate(-90 28.00 405.00)">Y axis label</text>
  <text x="80.00" y="754.00" font-size="14" text-anchor="middle">0</text>
  <text x="275.00" y="754.00" font-size="14" text-anchor="middle">π/2</text>
  <text x="470.00" y="754.00" font-size="14" text-anchor="middle">π</text>
  <text x="665.00" y="754.00" font-size="14" text-anchor="middle">3π/2</text>
  <text x="860.00" y="754.00" font-size="14" text-anchor="middle">2π</text>
  <text x="68.00" y="705.46" font-size="14" text-anchor="end">-1</text>
  <text x="68.00" y="557.73" font-size="14" text-anchor="end">-0.5</text>
  <text x="68.00" y="410.00" font-size="14" text-anchor="end">0</text>
  <text x="68.00" y="262.27" font-size="14" text-anchor="end">0.5</text>
  <text x="68.00" y="114.54" font-size="14" text-anchor="end">1</text>
  <polyline points="80.00,405.00 81.95,404.93 83.91,404.71 85.86,404.34 87.82,403.83 89.77,403.17 91.73,402.36 93.68,401.41 95.64,400.31 97.59,399.07 99.55,397.67 101.50,396.14 103.46,394.45 105.41,392.62 107.37,390.65 109.32,388.52 111.28,386.26 113.23,383.84 115.19,381.29 117.14,378.59 119.10,375.74 121.05,372.75 123.01,369.62 124.96,366.35 126.92,362.94 128.87,359.39 130.83,355.70 132.78,351.88 134.74,347.92 136.69,343.83 138.65,339.61 140.60,335.26 142.56,330.78 144.51,326.18 146.47,321.46 148.42,316.62 150.38,311.67 152.33,306.61 154.29,301.45 156.24,296.19 158.20,290.83 160.15,285.38 162.11,279.84 164.06,274.23 166.02,268.54 167.97,262.79 169.92,256.99 171.88,251.13 173.83,245.23 175.79,239.30 177.74,233.34 179.70,227.37 181.65,221.40 183.61,215.44 185.56,209.49 187.52,203.58 189.47,197.70 191.43,191.89 193.38,186.14 195.34,180.47 197.29,174.90 199.25,169.45 201.20,164.12 203.16,158.93 205.11,153.90 207.07,149.05 209.02,144.39 210.98,139.94 212.93,135.72 214.89,131.75 216.84,128.04 218.80,124.61 220.75,121.49 222.71,118.68 224.66,116.21 226.62,114.10 228.57,112.37 230.53,111.04 232.48,110.11 234.44,109.62 236.39,109.58 238.35,110.01 240.30,110.92 242.26,112.33 244.21,114.26 246.17,116.72 248.12,119.72 250.08,123.28 252.03,127.41 253.98,132.12 255.94,137.41 257.89,143.30 259.85,149.79 261.80,156.89 263.76,164.59 265.71,172.90 267.67,181.82 269.62,191.34 271.58,201.45 273.53,212.15 275.49,223.43 277.44,235.27 279.40,247.65 281.35,260.56 283.31,273.98 285.26,287.87 287.22,302.22 289.17,316.99 291.13,332.14 293.08,347.65 295.04,363.46 296.99,379.55 298.95,395.86 300.90,412.34 302.86,428.95 304.81,445.62 306.77,462.31 308.72,478.95 310.68,495.49 312.63,511.85 314.59,527.98 316.54,543.81 318.50,559.26 320.45,574.28 322.41,588.78 324.36,602.71 326.32,615.98 328.27,628.53 330.23,640.30 332.18,651.20 334.14,661.18 336.09,670.16 338.05,678.09 340.00,684.91 341.95,690.55 343.91,694.97 345.86,698.12 347.82,699.96 349.77,700.44 351.73,699.54 353.68,697.23 355.64,693.49 357.59,688.30 359.55,681.67 361.50,673.60 363.46,664.10 365.41,653.18 367.37,640.89 369.32,627.26 371.28,612.33 373.23,596.17 375.19,578.84 377.14,560.41 379.10,540.98 381.05,520.64 383.01,499.48 384.96,477.63 386.92,455.21 388.87,432.34 390.83,409.15 392.78,385.79 394.74,362.41 396.69,339.15 398.65,316.18 400.60,293.64 402.56,271.71 404.51,250.54 406.47,230.29 408.42,211.13 410.38,193.19 412.33,176.64 414.29,161.63 416.24,148.27 418.20,136.72 420.15,127.07 422.11,119.45 424.06,113.93 426.02,110.61 427.97,109.55 429.92,110.78 431.88,114.35 433.83,120.25 435.79,128.49 437.74,139.03 439.70,151.82 441.65,166.80 443.61,183.87 445.56,202.91 447.52,223.80 449.47,246.37 451.43,270.47 453.38,295.88 455.34,322.41 457.29,349.83 459.25,377.90 461.20,406.36 463.16,434.96 465.11,463.41 467.07,491.46 469.02,518.81 470.98,545.19 472.93,570.31 474.89,593.92 476.84,615.74 478.80,635.54 480.75,653.06 482.71,668.10 484.66,680.47 486.62,689.99 488.57,696.51 490.53,699.93 492.48,700.16 494.44,697.16 496.39,690.91 498.35,681.43 500.30,668.79 502.26,653.09 504.21,634.46 506.17,613.09 508.12,589.19 510.08,563.00 512.03,534.80 513.98,504.92 515.94,473.70 517.89,441.49 519.85,408.68 521.80,375.69 523.76,342.92 525.71,310.79 527.67,279.72 529.62,250.14 531.58,222.45 533.53,197.04 535.49,174.27 537.44,154.49 539.40,138.01 541.35,125.08 543.31,115.94 545.26,110.76 547.22,109.66 549.17,112.70 551.13,119.91 553.08,131.22 555.04,146.53 556.99,165.65 558.95,188.36 560.90,214.37 562.86,243.32 564.81,274.81 566.77,308.41 568.72,343.61 570.68,379.90 572.63,416.72 574.59,453.50 576.54,489.66 578.50,524.62 580.45,557.80 582.41,588.65 584.36,616.63 586.32,641.26 588.27,662.07 590.23,678.69 592.18,690.79 594.14,698.10 596.09,700.45 598.05,697.75 600.00,689.97 601.95,677.21 603.91,659.62 605.86,637.46 607.82,611.09 609.77,580.92 611.73,547.46 613.68,511.28 615.64,473.03 617.59,433.38 619.55,393.05 621.50,352.81 623.46,313.40 625.41,275.60 627.37,240.14 629.32,207.73 631.28,179.04 633.23,154.67 635.19,135.15 637.14,120.91 639.10,112.30 641.05,109.55 643.01,112.77 644.96,121.97 646.92,137.01 648.87,157.65 650.83,183.52 652.78,214.11 654.74,248.84 656.69,287.01 658.65,327.83 660.60,370.45 662.56,413.96 664.51,457.42 666.47,499.88 668.42,540.37 670.38,577.99 672.33,611.84 674.29,641.14 676.24,665.17 678.20,683.32 680.15,695.13 682.11,700.25 684.06,698.50 686.02,689.85 687.97,674.44 689.92,652.58 691.88,624.72 693.83,591.48 695.79,553.62 697.74,512.01 699.70,467.64 701.65,421.59 703.61,374.98 705.56,328.97 707.52,284.74 709.47,243.42 711.43,206.08 713.38,173.74 715.34,147.26 717.29,127.39 719.25,114.72 721.20,109.64 723.16,112.35 725.11,122.86 727.07,140.95 729.02,166.20 730.98,198.00 732.93,235.54 734.89,277.83 736.84,323.76 738.80,372.08 740.75,421.45 742.71,470.52 744.66,517.87 746.62,562.16 748.57,602.08 750.53,636.46 752.48,664.24 754.44,684.56 756.39,696.77 758.35,700.43 760.30,695.36 762.26,681.63 764.21,659.59 766.17,629.82 768.12,593.16 770.08,550.67 772.03,503.60 773.98,453.37 775.94,401.49 777.89,349.58 779.85,299.27 781.80,252.14 783.76,209.72 785.71,173.40 787.67,144.40 789.62,123.70 791.58,112.06 793.53,109.92 795.49,117.42 797.44,134.42 799.40,160.40 801.35,194.60 803.31,235.92 805.26,283.04 807.22,334.41 809.17,388.31 811.13,442.93 813.08,496.38 815.04,546.83 816.99,592.48 818.95,631.71 820.90,663.08 822.86,685.44 824.81,697.91 826.77,699.97 828.72,691.46 830.68,672.62 832.63,644.04 834.59,606.68 836.54,561.85 838.50,511.14 840.45,456.37 842.41,399.56 844.36,342.81 846.32,288.25 848.27,237.95 850.23,193.86 852.18,157.71 854.14,130.94 856.09,114.66 858.05,109.56 860.00,115.94" fill="none" stroke="#1f77b4" stroke-width="2.5" />
  <rect x="93.40" y="114.00" width="180" height="40" rx="6" ry="6" fill="#ffffff" stroke="#d0d0d0" />
  <line x1="103.40" y1="132.00" x2="163.40" y2="132.00" stroke="#1f77b4" stroke-width="2.5" />
  <text x="173.40" y="137.00" font-size="15">Sine wave</text>
  <text x="450.0" y="812.5" font-size="15" text-anchor="middle" fill="#666">export_latex(fig, name=..., aspect=1.2)</text>
</svg>