<?xml version="1.0" encoding="UTF-8"?>
<svg xmlns="http://www.w3.org/2000/svg" width="900" height="600" viewBox="0 0 900 600">
  <rect x="0" y="0" width="100%" height="100%" fill="#ffffff" />
  <style>text { font-family: 'DejaVu Sans', Arial, sans-serif; fill: #222; }</style>
  <text x="450.0" y="44.0" font-size="24" text-anchor="middle">Example Plot</text>
  <text x="450.0" y="68.0" font-size="16" text-anchor="middle" fill="#555">Side margin = 0.12</text>
  <rect x="160" y="80" width="580" height="430" fill="#fafafa" stroke="#d0d0d0" stroke-width="1" />
  <line x1="160.00" y1="80" x2="160.00" y2="510" stroke="#e0e0e0" stroke-width="1" stroke-dasharray="4 4" />
  <line x1="305.00" y1="80" x2="305.00" y2="510" stroke="#e0e0e0" stroke-width="1" stroke-dasharray="4 4" />
  <line x1="450.00" y1="80" x2="450.00" y2="510" stroke="#e0e0e0" stroke-width="1" stroke-dasharray="4 4" />
  <line x1="595.00" y1="80" x2="595.00" y2="510" stroke="#e0e0e0" stroke-width="1" stroke-dasharray="4 4" />
  <line x1="740.00" y1="80" x2="740.00" y2="510" stroke="#e0e0e0" stroke-width="1" stroke-dasharray="4 4" />
  <line x1="160" y1="490.46" x2="740" y2="490.46" stroke="#e0e0e0" stroke-width="1" stroke-dasharray="4 4" />
  <line x1="160" y1="392.73" x2="740" y2="392.73" stroke="#e0e0e0" stroke-width="1" stroke-dasharray="4 4" />
  <line x1="160" y1="295.00" x2="740" y2="295.00" stroke="#e0e0e0" stroke-width="1" stroke-dasharray="4 4" />
  <line x1="160" y1="197.27" x2="740" y2="197.27" stroke="#e0e0e0" stroke-width="1" stroke-dasharray="4 4" />
  <line x1="160" y1="99.54" x2="740" y2="99.54" stroke="#e0e0e0" stroke-width="1" stroke-dasharray="4 4" />
  <text x="450.00" y="555.00" font-size="18" text-anchor="middle">X axis label</text>
  <text x="56.00" y="295.00" font-size="18" text-anchor="middle" transform="rotate(-90 56.00 295.00)">Y axis label</text>
  <text x="160.00" y="534.00" font-size="14" text-anchor="middle">0</text>
  <text x="305.00" y="534.00" font-size="14" text-anchor="middle">π/2</text>
  <text x="450.00" y="534.00" font-size="14" text-anchor="middle">π</text>
  <text x="595.00" y="534.00" font-size="14" text-anchor="middle">3π/2</text>
  <text x="740.00" y="534.00" font-size="14" text-anchor="middle">2π</text>
  <text x="148.00" y="495.46" font-size="14" text-anchor="end">-1</text>
  <text x="148.00" y="397.73" font-size="14" text-anchor="end">-0.5</text>
  <text x="148.00" y="300.00" font-size="14" text-anchor="end">0</text>
  <text x="148.00" y="202.27" font-size="14" text-anchor="end">0.5</text>
  <text x="148.00" y="104.54" font-size="14" text-anchor="end">1</text>
  <polyline points="160.00,295.00 161.45,294.95 162.91,294.81 164.36,294.56 165.81,294.22 167.27,293.79 168.72,293.26 170.18,292.63 171.63,291.90 173.08,291.07 174.54,290.15 175.99,289.14 177.44,288.02 178.90,286.81 180.35,285.50 181.80,284.10 183.26,282.60 184.71,281.00 186.17,279.31 187.62,277.53 189.07,275.64 190.53,273.67 191.98,271.60 193.43,269.43 194.89,267.18 196.34,264.83 197.79,262.39 199.25,259.86 200.70,257.24 202.16,254.53 203.61,251.74 205.06,248.86 206.52,245.90 207.97,242.86 209.42,239.73 210.88,236.54 212.33,233.26 213.78,229.91 215.24,226.50 216.69,223.01 218.15,219.47 219.60,215.86 221.05,212.20 222.51,208.49 223.96,204.73 225.41,200.92 226.87,197.08 228.32,193.21 229.77,189.31 231.23,185.38 232.68,181.44 234.14,177.49 235.59,173.54 237.04,169.60 238.50,165.66 239.95,161.75 241.40,157.87 242.86,154.02 244.31,150.21 245.76,146.47 247.22,142.78 248.67,139.17 250.13,135.65 251.58,132.22 253.03,128.89 254.49,125.68 255.94,122.60 257.39,119.66 258.85,116.86 260.30,114.23 261.75,111.78 263.21,109.51 264.66,107.44 266.12,105.59 267.57,103.96 269.02,102.56 270.48,101.42 271.93,100.53 273.38,99.92 274.84,99.60 276.29,99.57 277.74,99.85 279.20,100.46 280.65,101.39 282.11,102.67 283.56,104.29 285.01,106.28 286.47,108.63 287.92,111.36 289.37,114.48 290.83,117.98 292.28,121.88 293.73,126.17 295.19,130.87 296.64,135.96 298.10,141.46 299.55,147.36 301.00,153.66 302.46,160.35 303.91,167.42 305.36,174.88 306.82,182.72 308.27,190.91 309.72,199.45 311.18,208.32 312.63,217.51 314.09,227.01 315.54,236.78 316.99,246.80 318.45,257.06 319.90,267.52 321.35,278.16 322.81,288.95 324.26,299.86 325.71,310.84 327.17,321.87 328.62,332.91 330.08,343.92 331.53,354.86 332.98,365.69 334.44,376.36 335.89,386.82 337.34,397.05 338.80,406.98 340.25,416.58 341.70,425.79 343.16,434.57 344.61,442.88 346.07,450.66 347.52,457.87 348.97,464.47 350.43,470.41 351.88,475.66 353.33,480.17 354.79,483.90 356.24,486.83 357.69,488.91 359.15,490.13 360.60,490.45 362.06,489.85 363.51,488.32 364.96,485.84 366.42,482.41 367.87,478.03 369.32,472.69 370.78,466.40 372.23,459.18 373.68,451.05 375.14,442.03 376.59,432.16 378.05,421.46 379.50,410.00 380.95,397.81 382.41,384.96 383.86,371.50 385.31,357.50 386.77,343.05 388.22,328.22 389.67,313.08 391.13,297.75 392.58,282.29 394.04,266.82 395.49,251.44 396.94,236.24 398.40,221.33 399.85,206.83 401.30,192.82 402.76,179.42 404.21,166.74 405.66,154.88 407.12,143.93 408.57,134.00 410.03,125.17 411.48,117.52 412.93,111.14 414.39,106.10 415.84,102.45 417.29,100.25 418.75,99.55 420.20,100.36 421.65,102.72 423.11,106.63 424.56,112.08 426.02,119.05 427.47,127.51 428.92,137.42 430.38,148.71 431.83,161.31 433.28,175.13 434.74,190.06 436.19,206.00 437.64,222.81 439.10,240.37 440.55,258.50 442.01,277.07 443.46,295.90 444.91,314.82 446.37,333.64 447.82,352.20 449.27,370.29 450.73,387.74 452.18,404.36 453.63,419.98 455.09,434.42 456.54,447.51 457.99,459.10 459.45,469.05 460.90,477.23 462.36,483.53 463.81,487.85 465.26,490.11 466.72,490.26 468.17,488.27 469.62,484.14 471.08,477.87 472.53,469.51 473.98,459.12 475.44,446.80 476.89,432.66 478.35,416.85 479.80,399.52 481.25,380.87 482.71,361.10 484.16,340.44 485.61,319.14 487.07,297.44 488.52,275.61 489.97,253.93 491.43,232.67 492.88,212.13 494.34,192.56 495.79,174.24 497.24,157.43 498.70,142.37 500.15,129.28 501.60,118.37 503.06,109.82 504.51,103.78 505.96,100.35 507.42,99.62 508.87,101.64 510.33,106.40 511.78,113.88 513.23,124.01 514.69,136.66 516.14,151.69 517.59,168.89 519.05,188.04 520.50,208.88 521.95,231.10 523.41,254.39 524.86,278.39 526.32,302.75 527.77,327.08 529.22,351.01 530.68,374.13 532.13,396.09 533.58,416.49 535.04,435.00 536.49,451.29 537.94,465.06 539.40,476.06 540.85,484.06 542.31,488.90 543.76,490.45 545.21,488.66 546.67,483.52 548.12,475.07 549.57,463.44 551.03,448.78 552.48,431.33 553.93,411.38 555.39,389.24 556.84,365.31 558.30,340.00 559.75,313.77 561.20,287.10 562.66,260.47 564.11,234.41 565.56,209.40 567.02,185.94 568.47,164.50 569.92,145.52 571.38,129.40 572.83,116.48 574.29,107.07 575.74,101.37 577.19,99.55 578.65,101.68 580.10,107.77 581.55,117.72 583.01,131.37 584.46,148.48 585.91,168.72 587.37,191.69 588.82,216.94 590.28,243.95 591.73,272.14 593.18,300.93 594.64,329.68 596.09,357.77 597.54,384.55 599.00,409.44 600.45,431.83 601.90,451.22 603.36,467.11 604.81,479.12 606.27,486.93 607.72,490.32 609.17,489.16 610.63,483.44 612.08,473.25 613.53,458.78 614.99,440.35 616.44,418.37 617.89,393.32 619.35,365.79 620.80,336.44 622.26,305.97 623.71,275.14 625.16,244.70 626.62,215.44 628.07,188.11 629.52,163.41 630.98,142.01 632.43,124.50 633.88,111.35 635.34,102.97 636.79,99.61 638.25,101.40 639.70,108.35 641.15,120.32 642.61,137.03 644.06,158.06 645.51,182.89 646.97,210.87 648.42,241.26 649.87,273.22 651.33,305.88 652.78,338.34 654.24,369.67 655.69,398.96 657.14,425.38 658.60,448.12 660.05,466.50 661.50,479.94 662.96,488.02 664.41,490.44 665.86,487.08 667.32,478.00 668.77,463.42 670.23,443.73 671.68,419.48 673.13,391.37 674.59,360.23 676.04,327.00 677.49,292.68 678.95,258.34 680.40,225.05 681.85,193.88 683.31,165.81 684.76,141.79 686.22,122.60 687.67,108.91 689.12,101.21 690.58,99.79 692.03,104.76 693.48,116.00 694.94,133.19 696.39,155.81 697.84,183.15 699.30,214.32 700.75,248.30 702.21,283.96 703.66,320.09 705.11,355.45 706.57,388.82 708.02,419.02 709.47,444.98 710.93,465.73 712.38,480.52 713.83,488.77 715.29,490.13 716.74,484.51 718.20,472.04 719.65,453.13 721.10,428.42 722.56,398.76 724.01,365.21 725.46,328.99 726.92,291.40 728.37,253.86 729.82,217.76 731.28,184.49 732.73,155.33 734.19,131.41 735.64,113.70 737.09,102.93 738.55,99.56 740.00,103.78" fill="none" stroke="#1f77b4" stroke-width="2.5" />
  <rect x="167.40" y="96.40" width="180" height="40" rx="6" ry="6" fill="#ffffff" stroke="#d0d0d0" />
  <line x1="177.40" y1="114.40" x2="237.40" y2="114.40" stroke="#1f77b4" stroke-width="2.5" />
  <text x="247.40" y="119.40" font-size="15">Sine wave</text>
  <text x="450.0" y="577.5" font-size="15" text-anchor="middle" fill="#666">export_latex(fig, name=..., side_margin=0.12)</text>
</svg>